HIERARCHY
ROOT Hips
{
	OFFSET 0.00 0.00 0.00
	CHANNELS 6 Xposition Yposition Zposition Xrotation Yrotation Zrotation
	JOINT Spine
	{
		OFFSET 0.00000 1.72418 2.58627
		CHANNELS 3 Xrotation Yrotation Zrotation
		JOINT Spine1
		{
			OFFSET 0.00000 0.59880 3.39597
			CHANNELS 3 Xrotation Yrotation Zrotation
			JOINT Spine2
			{
				OFFSET 0.00000 0.30055 3.43524
				CHANNELS 3 Xrotation Yrotation Zrotation
				JOINT Spine3
				{
					OFFSET 0.00000 0.00000 3.44836
					CHANNELS 3 Xrotation Yrotation Zrotation
					JOINT Neck
					{
						OFFSET 0.00000 -1.29313 9.05195
						CHANNELS 3 Xrotation Yrotation Zrotation
						JOINT Head
						{
							OFFSET 0.00000 -0.82335 4.66946
							CHANNELS 3 Xrotation Yrotation Zrotation
							End Site
							{
								OFFSET 0.00000 0.00001 5.58203
							}
						}
					}
					JOINT RightShoulder
					{
						OFFSET -1.18828 -1.98046 6.41673
						CHANNELS 3 Xrotation Yrotation Zrotation
						JOINT RightArm
						{
							OFFSET -5.90180 0.00000 0.00000
							CHANNELS 3 Xrotation Yrotation Zrotation
							JOINT RightForeArm
							{
								OFFSET -11.45951 0.00000 0.00000
								CHANNELS 3 Xrotation Yrotation Zrotation
								JOINT RightHand
								{
									OFFSET -10.63451 0.00000 0.00000
									CHANNELS 3 Xrotation Yrotation Zrotation
									JOINT RightHandEnd
									{
										OFFSET -2.86944 0.00000 0.00000
										CHANNELS 3 Xrotation Yrotation Zrotation
										End Site
										{
											OFFSET -2.86944 0.00000 0.00000
										}
									}
									JOINT RightHandThumb1
									{
										OFFSET -1.14778 -1.91296 -0.76518
										CHANNELS 3 Yrotation Xrotation Zrotation
										End Site
										{
											OFFSET -2.77167 -0.74267 0.00000
										}
									}
								}
							}
						}
					}
					JOINT LeftShoulder
					{
						OFFSET 1.18828 -1.98046 6.41673
						CHANNELS 3 Xrotation Yrotation Zrotation
						JOINT LeftArm
						{
							OFFSET 5.90180 0.00000 0.00000
							CHANNELS 3 Xrotation Yrotation Zrotation
							JOINT LeftForeArm
							{
								OFFSET 11.45951 0.00000 0.00000
								CHANNELS 3 Xrotation Yrotation Zrotation
								JOINT LeftHand
								{
									OFFSET 10.63451 0.00000 0.00000
									CHANNELS 3 Xrotation Yrotation Zrotation
									JOINT LeftHandEnd
									{
										OFFSET 2.86944 0.00000 0.00000
										CHANNELS 3 Xrotation Yrotation Zrotation
										End Site
										{
											OFFSET 2.86944 0.00000 0.00000
										}
									}
									JOINT LeftHandThumb1
									{
										OFFSET 1.14778 -1.91296 -0.76518
										CHANNELS 3 Yrotation Xrotation Zrotation
										End Site
										{
											OFFSET 2.77167 -0.74267 0.00000
										}
									}
								}
							}
						}
					}
				}
			}
		}
	}
	JOINT RightUpLeg
	{
		OFFSET -3.52524 0.00000 -1.02984
		CHANNELS 3 Xrotation Yrotation Zrotation
		JOINT RightLeg
		{
			OFFSET 0.00001 0.00000 -17.80965
			CHANNELS 3 Xrotation Yrotation Zrotation
			JOINT RightFoot
			{
				OFFSET 0.00001 0.00000 -17.00908
				CHANNELS 3 Xrotation Yrotation Zrotation
				JOINT RightToeBase
				{
					OFFSET 0.00000 -5.55853 -2.02314
					CHANNELS 3 Xrotation Yrotation Zrotation
					End Site
					{
						OFFSET 0.00000 -2.85188 -0.00000
					}
				}
			}
		}
	}
	JOINT LeftUpLeg
	{
		OFFSET 3.52524 0.00000 -1.02984
		CHANNELS 3 Xrotation Yrotation Zrotation
		JOINT LeftLeg
		{
			OFFSET 0.00001 0.00000 -17.80965
			CHANNELS 3 Xrotation Yrotation Zrotation
			JOINT LeftFoot
			{
				OFFSET 0.00001 0.00000 -17.00908
				CHANNELS 3 Xrotation Yrotation Zrotation
				JOINT LeftToeBase
				{
					OFFSET 0.00000 -5.55853 -2.02314
					CHANNELS 3 Xrotation Yrotation Zrotation
					End Site
					{
						OFFSET 0.00000 -2.85188 -0.00000
					}
				}
			}
		}
	}
}
MOTION
Frames: 15
Frame Time: 0.008342
 1.7948 26.6152 31.5416 2.4470 1.9334 179.5327 -1.8887 -2.8826 1.0664 -0.2453 -0.6059 0.3047 0.4687 5.4832 6.3010 -0.0901 0.7883 0.1096 -0.5023 -0.7410 -0.9691 -3.6698 -0.6148 -3.7889 -12.3473 17.8880 19.4124 -66.3228 -9.9432 33.0159 -0.0000 0.0001 66.3444 -38.9847 28.1347 9.0416 0.0000 0.0000 0.0000 0.0000 0.0000 0.0000 -14.1354 -16.0949 -12.5412 -60.7740 26.7276 -35.7958 -0.0000 -0.0001 -69.8750 -29.0259 -36.9314 -6.4548 0.0000 -0.0000 0.0000 -0.0000 0.0000 0.0000 18.8103 3.4030 -3.7114 53.0338 0.0000 0.0000 12.6565 -4.8415 1.1300 -52.4008 0.0000 -0.0000 -36.7377 2.3402 6.3819 71.8081 0.0000 0.0000 -31.5720 -5.8615 9.5081 -1.1468 0.0000 -0.0000
 1.7752 26.9118 31.7699 2.2082 1.6493 179.5160 -1.8033 -2.9717 1.0135 -0.2067 -0.5927 0.2954 0.3844 5.2493 6.1967 -0.1284 0.7098 0.1350 -0.9303 -0.6877 -0.9058 -3.8759 -0.6753 -3.8227 -12.0531 17.7119 19.0930 -66.0800 -8.5170 32.0689 -0.0000 0.0001 65.4773 -38.5460 27.9825 9.3308 0.0000 -0.0000 -0.0000 -0.0000 0.0000 0.0000 -13.4994 -15.6195 -12.1436 -60.4657 24.0065 -35.3876 -0.0000 -0.0001 -69.0045 -28.8315 -36.7475 -6.0475 -0.0000 -0.0000 -0.0000 0.0000 -0.0000 0.0000 17.8321 3.3367 -3.7785 53.4482 0.0000 0.0000 16.3039 -5.1659 1.1460 -46.7605 0.0000 -0.0000 -35.8397 2.2494 6.0887 70.7469 0.0000 0.0000 -31.5982 -5.8370 9.5503 -1.2961 0.0000 -0.0000
 1.7561 27.2021 32.0113 1.9783 1.3796 179.4996 -1.7113 -3.0264 0.9693 -0.1679 -0.5751 0.2859 0.3163 4.9805 6.0606 -0.1631 0.6280 0.1609 -1.3556 -0.6222 -0.8393 -4.0651 -0.7346 -3.8386 -11.7954 17.5497 18.7949 -65.7938 -7.1744 31.0167 -0.0000 0.0001 64.6013 -38.1385 27.8752 9.6323 0.0000 0.0000 0.0000 0.0000 -0.0000 -0.0000 -12.8784 -15.1602 -11.8027 -60.1476 21.2521 -34.7775 -0.0000 -0.0001 -68.1541 -28.6104 -36.5571 -5.6481 0.0000 0.0000 -0.0000 0.0000 -0.0000 0.0000 16.7632 3.2806 -3.9187 53.9418 0.0000 0.0000 19.6342 -5.4978 0.8690 -39.3463 0.0000 -0.0000 -34.8984 2.1645 5.8028 69.5746 0.0000 0.0000 -31.5273 -5.8001 9.5961 -1.4477 0.0000 -0.0000
 1.7372 27.4867 32.2636 1.7576 1.1361 179.4834 -1.6134 -3.0402 0.9364 -0.1316 -0.5444 0.2774 0.2640 4.6741 5.8962 -0.1926 0.5442 0.1899 -1.7724 -0.5487 -0.7766 -4.2329 -0.7894 -3.8362 -11.5708 17.4013 18.5038 -65.4760 -5.9459 29.8699 -0.0000 0.0001 63.7032 -37.7780 27.7499 9.9133 0.0000 -0.0000 0.0000 0.0000 0.0000 0.0000 -12.2810 -14.7326 -11.5427 -59.8252 18.5097 -33.9341 -0.0000 -0.0001 -67.3254 -28.3816 -36.2845 -5.2683 -0.0000 -0.0000 -0.0000 0.0000 -0.0000 0.0000 15.6172 3.2463 -4.1373 54.5108 0.0000 0.0000 22.4815 -5.8398 0.2840 -30.9359 0.0000 -0.0000 -33.9160 2.0918 5.5376 68.2968 0.0000 0.0000 -31.3667 -5.7521 9.6418 -1.5870 0.0000 -0.0000
 1.7185 27.7663 32.5249 1.5470 0.9233 179.4674 -1.5094 -3.0105 0.9130 -0.0980 -0.5100 0.2695 0.2243 4.3449 5.7135 -0.2179 0.4626 0.2222 -2.1732 -0.4811 -0.7277 -4.3790 -0.8342 -3.8110 -11.3692 17.2631 18.2077 -65.1392 -4.8491 28.6367 -0.0000 0.0001 62.7798 -37.4715 27.5538 10.1408 -0.0000 0.0000 -0.0000 0.0000 -0.0000 0.0000 -11.7234 -14.3505 -11.3743 -59.4807 15.8312 -32.8540 -0.0000 -0.0001 -66.5093 -28.1664 -35.8710 -4.9339 0.0000 -0.0000 0.0000 -0.0000 0.0000 -0.0000 14.4045 3.2369 -4.4300 55.1546 0.0000 0.0000 24.7035 -6.1781 -0.6009 -22.6324 0.0000 -0.0000 -32.8939 2.0321 5.3018 66.9201 0.0000 0.0000 -31.1258 -5.6933 9.6824 -1.7055 0.0000 -0.0000
 1.7003 28.0417 32.7937 1.3475 0.7381 179.4517 -1.3989 -2.9458 0.8978 -0.0692 -0.4741 0.2612 0.1947 4.0045 5.5193 -0.2356 0.3863 0.2594 -2.5559 -0.4330 -0.7024 -4.5012 -0.8645 -3.7591 -11.1829 17.1306 17.8899 -64.7958 -3.9034 27.3309 -0.0000 0.0001 61.8332 -37.1977 27.2474 10.2750 0.0000 0.0000 0.0000 -0.0000 -0.0000 0.0000 -11.2335 -14.0382 -11.3034 -59.0886 13.2759 -31.5239 -0.0000 -0.0001 -65.7099 -27.9859 -35.2767 -4.6574 0.0000 -0.0000 0.0000 0.0000 -0.0000 0.0000 13.1333 3.2469 -4.7883 55.8717 0.0000 0.0000 26.1958 -6.4734 -1.7552 -15.3121 0.0000 -0.0000 -31.8346 1.9791 5.1000 65.4533 0.0000 0.0000 -30.8144 -5.6225 9.7113 -1.8012 0.0000 -0.0000
 1.6825 28.3132 33.0683 1.1468 0.5835 179.4350 -1.2977 -2.8463 0.8888 -0.0434 -0.4400 0.2540 0.1744 3.6619 5.3194 -0.2478 0.3172 0.2973 -2.9104 -0.4138 -0.7019 -4.6065 -0.8779 -3.6800 -10.9910 16.9906 17.5452 -64.4578 -3.1013 25.9792 -0.0000 0.0001 60.8630 -36.9383 26.8135 10.2955 0.0000 -0.0000 0.0000 -0.0000 0.0000 0.0000 -10.7821 -13.7931 -11.3098 -58.6536 10.8673 -29.9855 -0.0000 -0.0001 -64.9087 -27.8750 -34.4950 -4.4652 0.0000 0.0000 -0.0000 0.0000 -0.0000 -0.0000 11.7938 3.2792 -5.2024 56.6646 0.0000 0.0000 26.8961 -6.6620 -3.1270 -9.3362 0.0000 -0.0000 -30.7535 1.9344 4.9385 63.9033 0.0000 0.0000 -30.4377 -5.5396 9.7252 -1.8813 0.0000 -0.0000
 1.6652 28.5818 33.3474 0.9507 0.4548 179.4165 -1.1995 -2.7202 0.8853 -0.0226 -0.4129 0.2444 0.1604 3.3302 5.1181 -0.2520 0.2568 0.3387 -3.2351 -0.4337 -0.7321 -4.6984 -0.8719 -3.5733 -10.7866 16.8376 17.1615 -64.1297 -2.4475 24.5967 -0.0000 0.0001 59.8777 -36.6576 26.2542 10.1832 0.0000 -0.0000 0.0000 -0.0000 -0.0000 0.0000 -10.3949 -13.6288 -11.3837 -58.1454 8.6518 -28.2497 -0.0000 -0.0001 -64.1064 -27.8617 -33.5370 -4.3690 -0.0000 0.0000 -0.0000 0.0000 -0.0000 -0.0000 10.3993 3.3281 -5.6625 57.5211 0.0000 0.0000 26.7964 -6.6689 -4.6515 -4.6799 0.0000 -0.0000 -29.6475 1.8929 4.8197 62.2795 0.0000 0.0000 -30.0001 -5.4426 9.7190 -1.9588 0.0000 -0.0000
 1.6486 28.8480 33.6295 0.7548 0.3475 179.3959 -1.1108 -2.5763 0.8824 -0.0048 -0.3872 0.2360 0.1518 3.0084 4.9167 -0.2504 0.2065 0.3791 -3.5235 -0.4957 -0.7903 -4.7819 -0.8482 -3.4408 -10.5543 16.6611 16.7414 -63.8155 -1.9227 23.2057 -0.0000 0.0001 58.8824 -36.3275 25.5942 9.9319 -0.0000 0.0000 -0.0000 -0.0000 -0.0000 -0.0000 -10.0318 -13.5366 -11.4869 -57.5843 6.6488 -26.3730 -0.0000 -0.0001 -63.2856 -27.9549 -32.4404 -4.3582 -0.0000 -0.0000 -0.0000 -0.0000 -0.0000 0.0000 8.9517 3.3881 -6.1572 58.4249 0.0000 0.0000 25.9394 -6.4306 -6.2553 -1.1832 0.0000 -0.0000 -28.5258 1.8516 4.7432 60.5933 0.0000 0.0000 -29.5014 -5.3297 9.6904 -2.0520 0.0000 -0.0000
 1.6322 29.1124 33.9135 0.5613 0.2620 179.3729 -1.0301 -2.4168 0.8769 0.0102 -0.3632 0.2292 0.1474 2.6999 4.7164 -0.2434 0.1663 0.4173 -3.7719 -0.6004 -0.8736 -4.8624 -0.8090 -3.2867 -10.2864 16.4527 16.2878 -63.5109 -1.5082 21.8246 -0.0000 0.0001 57.8810 -35.9257 24.8688 9.5491 0.0000 -0.0000 0.0000 -0.0000 0.0000 0.0000 -9.6786 -13.5123 -11.5898 -56.9764 4.8792 -24.3953 -0.0000 -0.0001 -62.4379 -28.1577 -31.2539 -4.4180 0.0000 0.0000 0.0000 0.0000 0.0000 -0.0000 7.4620 3.4602 -6.6774 59.3516 0.0000 0.0000 24.4132 -5.9119 -7.8607 1.2983 0.0000 0.0000 -27.3903 1.8133 4.7095 58.8552 0.0000 0.0000 -28.9374 -5.1991 9.6388 -2.1814 0.0000 -0.0000
 1.6162 29.3756 34.1979 0.3706 0.1946 179.3470 -0.9569 -2.2468 0.8689 0.0234 -0.3411 0.2222 0.1460 2.4072 4.5154 -0.2311 0.1343 0.4529 -3.9788 -0.7433 -0.9759 -4.9438 -0.7585 -3.1179 -9.9808 16.2086 15.8071 -63.2093 -1.1867 20.4649 -0.0000 0.0001 56.8783 -35.4339 24.1166 9.0464 -0.0000 0.0000 -0.0000 0.0000 -0.0000 -0.0000 -9.3160 -13.5431 -11.6622 -56.3357 3.3509 -22.3627 -0.0000 -0.0001 -61.5532 -28.4628 -30.0323 -4.5187 0.0000 0.0000 0.0000 0.0000 -0.0000 0.0000 5.9387 3.5411 -7.2111 60.2732 0.0000 0.0000 22.3407 -5.1221 -9.3962 2.8470 0.0000 0.0000 -26.2461 1.7775 4.7161 57.0790 0.0000 0.0000 -28.3020 -5.0485 9.5648 -2.3662 0.0000 -0.0000
 1.6002 29.6379 34.4816 0.1848 0.1426 179.3185 -0.8898 -2.0701 0.8569 0.0358 -0.3217 0.2138 0.1481 2.1315 4.3125 -0.2151 0.1076 0.4861 -4.1433 -0.9156 -1.0900 -5.0303 -0.7026 -2.9424 -9.6387 15.9286 15.3097 -62.8989 -0.9362 19.1333 -0.0000 0.0001 55.8760 -34.8485 23.3768 8.4468 0.0000 0.0000 -0.0000 0.0000 -0.0000 -0.0000 -8.9225 -13.6110 -11.6765 -55.6787 2.0597 -20.3230 -0.0000 -0.0000 -60.6172 -28.8625 -28.8324 -4.6424 -0.0000 -0.0000 0.0000 0.0000 -0.0000 0.0000 4.3903 3.6285 -7.7473 61.1620 0.0000 0.0000 19.8640 -4.1151 -10.8031 3.5025 0.0000 0.0000 -25.0975 1.7446 4.7588 55.2793 0.0000 0.0000 -27.5883 -4.8760 9.4698 -2.6217 0.0000 -0.0000
 1.5843 29.8998 34.7635 0.0090 0.0987 179.2892 -0.8225 -1.8898 0.8373 0.0468 -0.3150 0.2020 0.1553 1.8802 4.1105 -0.1970 0.0800 0.5158 -4.2656 -1.1037 -1.2069 -5.1238 -0.6486 -2.7710 -9.2672 15.6118 14.8076 -62.5639 -0.7350 17.8379 -0.0000 0.0001 54.8712 -34.1735 22.6783 7.7731 -0.0000 0.0000 -0.0000 0.0000 -0.0000 0.0000 -8.4941 -13.6953 -11.6221 -55.0127 0.9909 -18.3065 -0.0000 -0.0000 -59.6249 -29.3196 -27.6981 -4.7451 0.0000 -0.0000 0.0000 0.0000 0.0000 -0.0000 2.8272 3.7145 -8.2762 61.9912 0.0000 0.0000 17.1291 -2.9773 -12.0433 3.3090 0.0000 0.0000 -23.9461 1.7105 4.8313 53.4730 0.0000 0.0000 -26.7911 -4.6787 9.3539 -2.9575 0.0000 -0.0000
 1.5682 30.1614 35.0423 -0.1590 0.0655 179.2603 -0.7596 -1.7122 0.8089 0.0608 -0.2994 0.1927 0.1672 1.6340 3.9027 -0.1772 0.0538 0.5407 -4.3466 -1.2978 -1.3187 -5.2260 -0.6006 -2.6111 -8.8661 15.2612 14.3123 -62.1968 -0.5613 16.5809 -0.0000 0.0001 53.8594 -33.4282 22.0380 7.0519 0.0000 0.0000 -0.0000 -0.0000 -0.0000 -0.0000 -7.9827 -13.7892 -11.4759 -54.3914 0.1355 -16.3396 -0.0000 -0.0000 -58.5684 -29.8062 -26.6592 -4.8075 -0.0000 0.0000 -0.0000 0.0000 -0.0000 0.0000 1.2469 3.8042 -8.7919 62.7455 0.0000 0.0000 14.2695 -1.8056 -13.0979 2.3686 0.0000 0.0000 -22.8013 1.6817 4.9283 51.6741 0.0000 0.0000 -25.9052 -4.4556 9.2216 -3.3761 0.0000 -0.0000
 1.5518 30.4230 35.3169 -0.3137 0.0365 179.2338 -0.6937 -1.5386 0.7712 0.0764 -0.2887 0.1815 0.1865 1.4021 3.6918 -0.1567 0.0244 0.5621 -4.3921 -1.4865 -1.4195 -5.3348 -0.5630 -2.4707 -8.4474 14.8793 13.8290 -61.7844 -0.4057 15.3668 -0.0000 0.0001 52.8341 -32.6356 21.4591 6.3057 0.0000 0.0000 -0.0000 -0.0000 -0.0000 0.0000 -7.4042 -13.8725 -11.2391 -53.8070 -0.5258 -14.4430 -0.0000 -0.0000 -57.4395 -30.2859 -25.7340 -4.8095 0.0000 0.0000 -0.0000 0.0000 -0.0000 0.0000 -0.3430 3.8916 -9.2924 63.4088 0.0000 0.0000 11.4028 -0.6866 -13.9695 0.8658 0.0000 0.0000 -21.6641 1.6533 5.0433 49.8984 0.0000 0.0000 -24.9319 -4.2050 9.0726 -3.8725 0.0000 -0.0000
